<svg xmlns="http://www.w3.org/2000/svg" viewBox="0 0 24 24"><path fill="#fff" d="M12 .5a12 12 0 0 0-3.79 23.4c.6.11.82-.26.82-.58v-2.17c-3.34.73-4.04-1.61-4.04-1.61-.55-1.4-1.34-1.77-1.34-1.77-1.09-.74.08-.73.08-.73 1.2.08 1.84 1.24 1.84 1.24 1.07 1.84 2.81 1.31 3.5 1 .11-.78.42-1.31.76-1.61-2.66-.3-5.46-1.33-5.46-5.92 0-1.31.47-2.38 1.24-3.22-.12-.3-.54-1.52.12-3.16 0 0 1.01-.32 3.3 1.23a11.5 11.5 0 0 1 6 0c2.29-1.55 3.3-1.23 3.3-1.23.66 1.64.24 2.86.12 3.16.77.84 1.24 1.91 1.24 3.22 0 4.6-2.8 5.62-5.47 5.92.43.37.81 1.1.81 2.22V23.3c0 .32.21.7.82.58A12 12 0 0 0 12 .5z"/></svg>